# xmcd
#
# Track frame offsets:
#	150
#	4088
#	21540
#	37073
#	50410
#	74883
#	91198
#	112073
#	115233
#	133363
#	153458
#	172335
#	200978
#	218625
#	233885
#
# Disc length: 3126 seconds
#
# Revision: 3
# Processed by: cddbd v1.4PL0 Copyright (c) Steve Scherf et al.
# Submitted via: CDmax 2.0
#
DISCID=ed0c340f
DTITLE=Keri Leigh and the Blue Devils - No Beginner
DYEAR=1994
DGENRE=Blues
TTITLE0=All Aboard
TTITLE1=Locomotive Blues
TTITLE2=Tell Mama
TTITLE3=Georgia Crawl
TTITLE4=Don't Tease Me
TTITLE5=I Was Just Thinking
TTITLE6=Green River
TTITLE7=Wild Women Don't Get the Blues
TTITLE8=No Beginner At the Blues
TTITLE9=Stone Cold In Love
TTITLE10=Lightning Strikes the Ground
TTITLE11=Full Moon Blues
TTITLE12=The Houserocker
TTITLE13=If You Love Me
TTITLE14=(voice check "Are We Rollin?")
EXTD=LABEL =Amazing Records\nID =AMZ1035.2\nUPC =09955-71035-24\nCOPYRIGHT
EXTD==1994
EXTT0=
EXTT1=
EXTT2=
EXTT3=
EXTT4=
EXTT5=
EXTT6=
EXTT7=
EXTT8=
EXTT9=
EXTT10=
EXTT11=
EXTT12=
EXTT13=
EXTT14=
PLAYORDER=
